<?xml version="1.0" encoding="UTF-8" standalone="no"?>
<svg xmlns:rdf="http://www.w3.org/1999/02/22-rdf-syntax-ns#" xmlns="http://www.w3.org/2000/svg" height="14px" width="14px" version="1.1" xmlns:cc="http://creativecommons.org/ns#" xmlns:xlink="http://www.w3.org/1999/xlink" viewBox="0 0 14 14" xmlns:dc="http://purl.org/dc/elements/1.1/">
 <defs>
  <path id="a" d="m7.1561 3.4667l1.4006-3.4667 2.1863 0.88325-1.4008 3.4666c-0.5875-0.5195-1.3491-0.8468-2.1861-0.8831zm2.4106 1.1001l3.4153-1.5208 0.959 2.154-3.415 1.5207c-0.065-0.832-0.418-1.5832-0.9593-2.1539zm0.9663 2.5893l3.467 1.4006-0.883 2.1863-3.4669-1.4008c0.5199-0.5875 0.8469-1.3491 0.8829-2.1861zm-1.0998 2.4106l1.5208 3.4153-2.154 0.959-1.5207-3.415c0.832-0.065 1.5832-0.418 2.1539-0.9593zm-2.5893 0.9663l-1.4006 3.467-2.1861-0.883 1.4006-3.4669c0.5875 0.5199 1.3491 0.8469 2.1861 0.8829zm-2.4106-1.0998l-3.4157 1.5208-0.95901-2.154 3.4156-1.5207c0.065 0.832 0.4179 1.5832 0.9591 2.1539zm-0.9666-2.5893l-3.4667-1.4006 0.88325-2.1861 3.4666 1.4006c-0.5195 0.5875-0.8468 1.3491-0.8831 2.1861zm1.1001-2.4106l-1.5208-3.4157 2.154-0.95901 1.5207 3.4156c-0.832 0.065-1.5832 0.4179-2.1539 0.9591z"/>
 </defs>
 <g fill-rule="evenodd" fill="none">
  <use xlink:href="#a" fill-rule="evenodd" fill="#D8D8D8"/>
  <path stroke="#979797" stroke-width="1.1789" d="m7.9836 2.992c0.3851 0.0942 0.7528 0.2432 1.093 0.4417l0.8989-2.2247-1.0931-0.44166-0.8988 2.2247zm2.5084 1.8082c0.21 0.3333 0.372 0.6956 0.479 1.0769l2.192-0.9759-0.479-1.077-2.192 0.976zm0.516 3.1834c-0.094 0.3851-0.243 0.7528-0.442 1.093l2.225 0.8989 0.442-1.0931-2.225-0.8988zm-1.8082 2.5084c-0.3333 0.21-0.6956 0.372-1.0769 0.479l0.9759 2.192 1.0772-0.479-0.9762-2.192zm-3.1834 0.516c-0.3851-0.094-0.7528-0.243-1.093-0.442l-0.8989 2.225 1.0931 0.442 0.8988-2.225zm-2.5079-1.8082c-0.2104-0.3333-0.3722-0.6956-0.4798-1.0769l-2.1919 0.9759 0.4795 1.0772 2.1922-0.9762zm-0.5165-3.1834c0.0942-0.3851 0.2432-0.7528 0.4417-1.093l-2.2247-0.8989-0.44166 1.0931 2.2247 0.8988zm1.8082-2.5079c0.3333-0.2104 0.6956-0.3722 1.0769-0.4798l-0.9759-2.1919-1.077 0.4795 0.976 2.1922z"/>
  <circle stroke-width="2" cy="7" stroke="#979797" cx="7" r="4"/>
 </g>
</svg>
