<?xml version="1.0" encoding="UTF-8" standalone="no"?>
<svg xmlns:rdf="http://www.w3.org/1999/02/22-rdf-syntax-ns#" xmlns="http://www.w3.org/2000/svg" height="43px" width="55px" version="1.1" xmlns:cc="http://creativecommons.org/ns#" xmlns:dc="http://purl.org/dc/elements/1.1/" viewBox="0 0 55 43">
 <defs>
  <linearGradient id="c" x2="50%" x1="50%" y2="100%">
   <stop stop-color="#B4ED50" offset="0"/>
   <stop stop-color="#429321" offset="1"/>
  </linearGradient>
  <linearGradient id="b" x2="50%" x1="50%" y2="100%">
   <stop stop-color="#FBDA61" offset="0"/>
   <stop stop-color="#F76B1C" offset="1"/>
  </linearGradient>
  <linearGradient id="a" x2="50%" x1="50%" y2="100%">
   <stop stop-color="#F5515F" offset="0"/>
   <stop stop-color="#9F031B" offset="1"/>
  </linearGradient>
 </defs>
 <g fill-rule="evenodd" fill="none">
  <g transform="translate(37.644 .38438)">
   <rect height="37.491" width="12.112" y="4.6245" x="4.7465" fill="url(#c)"/>
   <polygon points="0 2.8422e-14 0 37.491 4.7465 42.116 4.7465 4.6245" fill="url(#c)"/>
   <polygon points="0 0 4.7465 4.6245 16.858 4.6245 12.112 0" fill="#B8E986"/>
  </g>
  <g transform="translate(18.822 15.414)">
   <polygon points="4.7465 4.6245 16.858 4.6245 16.858 27.086 4.7465 27.086" fill="url(#b)"/>
   <polygon points="0 2.8422e-14 0 22.462 4.7465 27.086 4.7465 4.6245" fill="url(#b)"/>
   <polygon points="0 0 4.7465 4.6245 16.858 4.6245 12.112 0" fill="#FFDDA4"/>
  </g>
  <g transform="translate(0 25.489)">
   <polygon points="4.7465 4.6245 16.858 4.6245 16.858 17.011 4.7465 17.011" fill="url(#a)"/>
   <polygon points="0 0 0 12.387 4.7465 17.011 4.7465 4.6245" fill="url(#a)"/>
   <polygon points="0 0 4.7465 4.6245 16.858 4.6245 12.112 0" fill="#FF8C9A"/>
  </g>
 </g>
</svg>
